0
SECTION
2
HEADER
9
$INSUNITS
70
4
9
$ACADVER
1
AC1014
9
$HANDSEED
5
FFFF
0
ENDSEC
0
SECTION
2
TABLES
0
TABLE
2
VPORT
5
8
100
AcDbSymbolTable
0
ENDTAB
0
TABLE
2
LTYPE
5
5
100
AcDbSymbolTable
0
LTYPE
5
14
100
AcDbSymbolTableRecord
100
AcDbLinetypeTableRecord
2
BYBLOCK
70
0
0
LTYPE
5
15
100
AcDbSymbolTableRecord
100
AcDbLinetypeTableRecord
2
BYLAYER
70
0
0
LTYPE
5
16
100
AcDbSymbolTableRecord
100
AcDbLinetypeTableRecord
2
DASHED
70
0
3
Dashed __ __ __ __ __ __ __ __ __ __ __ __ __ _
72
65
73
2
40
0.75
49
0.5
74
0
49
-0.25
74
0
0
ENDTAB
0
TABLE
2
LAYER
5
2
100
AcDbSymbolTable
70
2
0
LAYER
5
50
100
AcDbSymbolTableRecord
100
AcDbLayerTableRecord
2
0
70
0
62
7
6
CONTINUOUS
0
ENDTAB
0
TABLE
2
STYLE
5
3
100
AcDbSymbolTable
70
1
0
STYLE
5
11
100
AcDbSymbolTableRecord
100
AcDbTextStyleTableRecord
2
STANDARD
70
0
0
ENDTAB
0
TABLE
2
VIEW
5
6
100
AcDbSymbolTable
70
0
0
ENDTAB
0
TABLE
2
UCS
5
7
100
AcDbSymbolTable
70
0
0
ENDTAB
0
TABLE
2
APPID
5
9
100
AcDbSymbolTable
70
2
0
APPID
5
12
100
AcDbSymbolTableRecord
100
AcDbRegAppTableRecord
2
ACAD
70
0
0
ENDTAB
0
TABLE
2
DIMSTYLE
5
A
100
AcDbSymbolTable
70
1
0
ENDTAB
0
TABLE
2
BLOCK_RECORD
5
1
100
AcDbSymbolTable
70
1
0
BLOCK_RECORD
5
1F
100
AcDbSymbolTableRecord
100
AcDbBlockTableRecord
2
*MODEL_SPACE
0
BLOCK_RECORD
5
1B
100
AcDbSymbolTableRecord
100
AcDbBlockTableRecord
2
*PAPER_SPACE
0
ENDTAB
0
ENDSEC
0
SECTION
2
BLOCKS
0
BLOCK
5
20
100
AcDbEntity
100
AcDbBlockBegin
2
*MODEL_SPACE
0
ENDBLK
5
21
100
AcDbEntity
100
AcDbBlockEnd
0
BLOCK
5
1C
100
AcDbEntity
100
AcDbBlockBegin
2
*PAPER_SPACE
0
ENDBLK
5
1D
100
AcDbEntity
100
AcDbBlockEnd
0
ENDSEC
0
SECTION
2
ENTITIES
0
CIRCLE
5
100
100
AcDbEntity
8
0
100
AcDbCircle
10
-22.00000032782561
20
-22.000000327825532
30
0
40
1.5000000000000036
210
7.2699200114507798e-49
220
9.5209225174800869e-81
230
1
0
CIRCLE
5
101
100
AcDbEntity
8
0
100
AcDbCircle
10
-42.000000625848834
20
-22.000000327825532
30
0
40
1.4999999999999947
210
7.2699200114507798e-49
220
9.5209225174800869e-81
230
1
0
CIRCLE
5
102
100
AcDbEntity
8
0
100
AcDbCircle
10
-4.0000000596047078
20
-22.000000327825532
30
0
40
1.5000000000000002
210
7.2699200114507798e-49
220
9.5209225174800869e-81
230
1
0
LWPOLYLINE
5
103
100
AcDbEntity
8
0
100
AcDbPolyline
90
63
70
1
43
0.0
10
-121.00000145950609
20
-35.000017285967282
10
-89.250000000000199
20
-35.000015104530547
10
-72.750000000000171
20
-35.000013970870562
10
115.00000171363351
20
-34.9999998261531
10
123.00000183284276
20
-35.000000521540628
10
123.00000183284276
20
-30.000000447034822
10
115.00000171363347
20
-30.000000447034822
10
115.00000171363347
20
-25.000000372529016
10
123.00000183284276
20
-25.000000372529016
10
123.00000183284276
20
-20.00000029802321
10
115.00000171363347
20
-20.00000029802321
10
115.00000171363347
20
-15.000000223517404
10
123.00000183284276
20
-15.000000223517402
10
123.00000183284276
20
-10.000000149011596
10
115.00000171363347
20
-10.000000149011596
10
115.00000171363347
20
-5.00000007450579
10
123.00000183284276
20
-5.0000000745057918
10
123.00000183284276
20
1.4432899320127035e-14
10
115.00000171363347
20
1.4772905121418492e-14
10
115.00000171363347
20
5.0000000745058202
10
123.00000183284276
20
5.0000000745058202
10
123.00000183284276
20
10.000000149011626
10
115.00000171363347
20
10.000000149011628
10
115.00000171363347
20
15.000000223517434
10
123.00000183284276
20
15.000000223517434
10
123.00000183284276
20
20.000000298023242
10
115.00000171363347
20
20.000000298023238
10
115.00000171363347
20
25.000000372529044
10
123.00000183284276
20
25.000000372529044
10
123.00000183284276
20
30.00000044703485
10
115.00000171363347
20
30.00000044703485
10
115.00001072089331
20
34.999822171401867
10
16.000000238418508
20
35.000000521540656
10
16.000000238418515
20
45.000000000000014
10
-13.999999985098901
20
45.000000000000014
10
-13.999999985098899
20
35.000000000000014
10
-113.0000016838313
20
35.000125753371222
10
-113.00000168383133
20
30.00000044703485
10
-121.00000180304058
20
30.00000044703485
10
-121.00007900652678
20
25.000123902351433
10
-113.00000168383129
20
25.000000372529044
10
-113.00000168383129
20
20.000000298023238
10
-121.00000180304058
20
20.000000298023238
10
-121.00000474511104
20
15.000004930836347
10
-113.00000168383137
20
15.000000223517443
10
-113.00000168383137
20
10.000000149011628
10
-121.00000180304058
20
10.000000149011628
10
-121.0001121618501
20
5.0001766572746824
10
-113.00000168383129
20
5.0000000745058202
10
-113.00000168383129
20
1.4432899320127035e-14
10
-121.00000180304058
20
1.4772905121418489e-14
10
-121.00006005459397
20
-4.9999068696037439
10
-113.00000168383129
20
-5.00000007450579
10
-113.00000168383129
20
-10.000000149011598
10
-121.00000180304058
20
-10.000000149011596
10
-121.00004770588355
20
-14.999926777468291
10
-113.00000168383139
20
-15.000000223517414
10
-113.00000168383139
20
-20.000000298023206
10
-121.00000180304058
20
-20.00000029802321
10
-120.99998448510016
20
-25.000028081020144
10
-113.00000168383129
20
-25.000000372529016
10
-113.00000168383129
20
-30.000000447034822
10
-121.00000180304058
20
-30.000000447034822
0
ENDSEC
0
SECTION
2
OBJECTS
0
DICTIONARY
5
C
100
AcDbDictionary
3
ACAD_GROUP
350
D
3
ACAD_MLINESTYLE
350
17
0
DICTIONARY
5
D
100
AcDbDictionary
0
DICTIONARY
5
1A
330
C
100
AcDbDictionary
0
DICTIONARY
5
17
100
AcDbDictionary
0
ENDSEC
0
EOF
