0
SECTION
2
HEADER
9
$INSUNITS
70
4
9
$ACADVER
1
AC1014
9
$HANDSEED
5
FFFF
0
ENDSEC
0
SECTION
2
TABLES
0
TABLE
2
VPORT
5
8
100
AcDbSymbolTable
0
ENDTAB
0
TABLE
2
LTYPE
5
5
100
AcDbSymbolTable
0
LTYPE
5
14
100
AcDbSymbolTableRecord
100
AcDbLinetypeTableRecord
2
BYBLOCK
70
0
0
LTYPE
5
15
100
AcDbSymbolTableRecord
100
AcDbLinetypeTableRecord
2
BYLAYER
70
0
0
LTYPE
5
16
100
AcDbSymbolTableRecord
100
AcDbLinetypeTableRecord
2
DASHED
70
0
3
Dashed __ __ __ __ __ __ __ __ __ __ __ __ __ _
72
65
73
2
40
0.75
49
0.5
74
0
49
-0.25
74
0
0
ENDTAB
0
TABLE
2
LAYER
5
2
100
AcDbSymbolTable
70
2
0
LAYER
5
50
100
AcDbSymbolTableRecord
100
AcDbLayerTableRecord
2
0
70
0
62
7
6
CONTINUOUS
0
ENDTAB
0
TABLE
2
STYLE
5
3
100
AcDbSymbolTable
70
1
0
STYLE
5
11
100
AcDbSymbolTableRecord
100
AcDbTextStyleTableRecord
2
STANDARD
70
0
0
ENDTAB
0
TABLE
2
VIEW
5
6
100
AcDbSymbolTable
70
0
0
ENDTAB
0
TABLE
2
UCS
5
7
100
AcDbSymbolTable
70
0
0
ENDTAB
0
TABLE
2
APPID
5
9
100
AcDbSymbolTable
70
2
0
APPID
5
12
100
AcDbSymbolTableRecord
100
AcDbRegAppTableRecord
2
ACAD
70
0
0
ENDTAB
0
TABLE
2
DIMSTYLE
5
A
100
AcDbSymbolTable
70
1
0
ENDTAB
0
TABLE
2
BLOCK_RECORD
5
1
100
AcDbSymbolTable
70
1
0
BLOCK_RECORD
5
1F
100
AcDbSymbolTableRecord
100
AcDbBlockTableRecord
2
*MODEL_SPACE
0
BLOCK_RECORD
5
1B
100
AcDbSymbolTableRecord
100
AcDbBlockTableRecord
2
*PAPER_SPACE
0
ENDTAB
0
ENDSEC
0
SECTION
2
BLOCKS
0
BLOCK
5
20
100
AcDbEntity
100
AcDbBlockBegin
2
*MODEL_SPACE
0
ENDBLK
5
21
100
AcDbEntity
100
AcDbBlockEnd
0
BLOCK
5
1C
100
AcDbEntity
100
AcDbBlockBegin
2
*PAPER_SPACE
0
ENDBLK
5
1D
100
AcDbEntity
100
AcDbBlockEnd
0
ENDSEC
0
SECTION
2
ENTITIES
0
CIRCLE
5
100
100
AcDbEntity
8
0
100
AcDbCircle
10
208.62500339001406
20
-1.1490808304870364e-14
30
0
40
17.5
210
3.7982270983039195e-65
220
0
230
1
0
LWPOLYLINE
5
101
100
AcDbEntity
8
0
100
AcDbPolyline
90
56
70
1
43
0.0
10
258.12499988079082
20
-30.000000447034751
10
266.12500000000017
20
-30.000000447034751
10
266.12500000000017
20
-25.000000372528998
10
258.12499541044247
20
-25.000000372529001
10
258.12499541044247
20
-20.000000298023206
10
266.12500000000011
20
-20.000000298023188
10
266.12500000000011
20
-15.000000223517386
10
258.12499541044247
20
-15.000000223517389
10
258.12499541044247
20
-10.000000149011591
10
266.12500000000011
20
-10.000000149011591
10
266.12500000000011
20
-5.0000000745057926
10
258.12499541044247
20
-5.0000000745057926
10
258.12499541044247
20
5.5511151231257827e-15
10
266.12500000000011
20
5.5920414457242128e-15
10
266.12500000000011
20
5.0000000745058042
10
258.12499541044247
20
5.0000000745058042
10
258.12499541044247
20
9.9999999999999911
10
266.12500000000011
20
9.9999999999999911
10
266.12500000000011
20
15.000000223517402
10
258.12499541044247
20
15.000000223517402
10
258.12499541044247
20
19.999999999999979
10
266.12500000000034
20
19.999999999999979
10
266.12500000000034
20
25.000000372529023
10
258.12499541044247
20
25.000000372529023
10
258.12499541044247
20
30.000000447034797
10
266.12500000000011
20
30.000000447034797
10
266.12500000000011
20
35.000000521540635
10
151.12500253319732
20
35.000000521540649
10
151.12500253319735
20
30.000000000000021
10
159.12500458955759
20
30.000000000000021
10
159.12500458955759
20
25.000000000000004
10
151.12499999999994
20
25.000000000000004
10
151.12499999999994
20
20.000000298023227
10
159.12500265240664
20
20.000000298023227
10
159.12500265240664
20
15.000000000000009
10
151.12499999999994
20
15.000000000000007
10
151.12499999999994
20
10.000000149011619
10
159.12500265240664
20
10.000000149011619
10
159.12500265240664
20
5.000000000000008
10
151.12499999999994
20
5.0000000000000053
10
151.12499999999994
20
6.6613381477509392e-15
10
159.12500265240664
20
6.2727600891321408e-15
10
159.12500265240664
20
-4.999999999999992
10
151.12499999999994
20
-4.9999999999999929
10
151.12499999999994
20
-10.000000149011605
10
159.12500265240664
20
-10.000000149011605
10
159.12500265240664
20
-15.000000223517411
10
151.12499999999994
20
-15.000000223517411
10
151.12499999999994
20
-20.000000298023224
10
159.12500265240664
20
-20.00000029802322
10
159.12500265240664
20
-24.999999999999996
10
151.12499999999994
20
-24.999999999999996
10
151.12499999999994
20
-29.999999999999996
10
159.12500265240664
20
-29.999999999999996
10
159.12500265240664
20
-35.00000052154067
10
258.12499988079082
20
-35.000000521540514
0
ENDSEC
0
SECTION
2
OBJECTS
0
DICTIONARY
5
C
100
AcDbDictionary
3
ACAD_GROUP
350
D
3
ACAD_MLINESTYLE
350
17
0
DICTIONARY
5
D
100
AcDbDictionary
0
DICTIONARY
5
1A
330
C
100
AcDbDictionary
0
DICTIONARY
5
17
100
AcDbDictionary
0
ENDSEC
0
EOF
