0
SECTION
2
HEADER
9
$INSUNITS
70
4
9
$ACADVER
1
AC1014
9
$HANDSEED
5
FFFF
0
ENDSEC
0
SECTION
2
TABLES
0
TABLE
2
VPORT
5
8
100
AcDbSymbolTable
0
ENDTAB
0
TABLE
2
LTYPE
5
5
100
AcDbSymbolTable
0
LTYPE
5
14
100
AcDbSymbolTableRecord
100
AcDbLinetypeTableRecord
2
BYBLOCK
70
0
0
LTYPE
5
15
100
AcDbSymbolTableRecord
100
AcDbLinetypeTableRecord
2
BYLAYER
70
0
0
LTYPE
5
16
100
AcDbSymbolTableRecord
100
AcDbLinetypeTableRecord
2
DASHED
70
0
3
Dashed __ __ __ __ __ __ __ __ __ __ __ __ __ _
72
65
73
2
40
0.75
49
0.5
74
0
49
-0.25
74
0
0
ENDTAB
0
TABLE
2
LAYER
5
2
100
AcDbSymbolTable
70
2
0
LAYER
5
50
100
AcDbSymbolTableRecord
100
AcDbLayerTableRecord
2
0
70
0
62
7
6
CONTINUOUS
0
ENDTAB
0
TABLE
2
STYLE
5
3
100
AcDbSymbolTable
70
1
0
STYLE
5
11
100
AcDbSymbolTableRecord
100
AcDbTextStyleTableRecord
2
STANDARD
70
0
0
ENDTAB
0
TABLE
2
VIEW
5
6
100
AcDbSymbolTable
70
0
0
ENDTAB
0
TABLE
2
UCS
5
7
100
AcDbSymbolTable
70
0
0
ENDTAB
0
TABLE
2
APPID
5
9
100
AcDbSymbolTable
70
2
0
APPID
5
12
100
AcDbSymbolTableRecord
100
AcDbRegAppTableRecord
2
ACAD
70
0
0
ENDTAB
0
TABLE
2
DIMSTYLE
5
A
100
AcDbSymbolTable
70
1
0
ENDTAB
0
TABLE
2
BLOCK_RECORD
5
1
100
AcDbSymbolTable
70
1
0
BLOCK_RECORD
5
1F
100
AcDbSymbolTableRecord
100
AcDbBlockTableRecord
2
*MODEL_SPACE
0
BLOCK_RECORD
5
1B
100
AcDbSymbolTableRecord
100
AcDbBlockTableRecord
2
*PAPER_SPACE
0
ENDTAB
0
ENDSEC
0
SECTION
2
BLOCKS
0
BLOCK
5
20
100
AcDbEntity
100
AcDbBlockBegin
2
*MODEL_SPACE
0
ENDBLK
5
21
100
AcDbEntity
100
AcDbBlockEnd
0
BLOCK
5
1C
100
AcDbEntity
100
AcDbBlockBegin
2
*PAPER_SPACE
0
ENDBLK
5
1D
100
AcDbEntity
100
AcDbBlockEnd
0
ENDSEC
0
SECTION
2
ENTITIES
0
CIRCLE
5
100
100
AcDbEntity
8
0
100
AcDbCircle
10
4.0053884471855508
20
34.431626255763355
30
0
40
2.19515974401377
210
3.7982270983039195e-65
220
0
230
1
0
CIRCLE
5
101
100
AcDbEntity
8
0
100
AcDbCircle
10
-6.0057784709962423
20
34.431626255763355
30
0
40
2.2020323258445194
210
4.9303806576313249e-32
220
2.6988026734670151e-79
230
1
0
CIRCLE
5
102
100
AcDbEntity
8
0
100
AcDbCircle
10
-6.0057784709962423
20
-15.073851885271242
30
0
40
2.1128950850277817
210
3.7982270983039195e-65
220
0
230
1
0
CIRCLE
5
103
100
AcDbEntity
8
0
100
AcDbCircle
10
4.0053890429439489
20
-15.073851885271242
30
0
40
2.1870097582376027
210
3.7982270983039195e-65
220
0
230
1
0
LWPOLYLINE
5
104
100
AcDbEntity
8
0
100
AcDbPolyline
90
4
70
1
43
0.0
10
9.2499997708946822
20
29.716801110411765
10
9.2499997708946822
20
-10.499999765306702
10
-11.185056258537852
20
-10.499999765306702
10
-11.185056258537852
20
29.716801110411765
0
LWPOLYLINE
5
105
100
AcDbEntity
8
0
100
AcDbPolyline
90
63
70
1
43
0.0
10
89.250000000000171
20
-35.000015104530547
10
121.00000145950605
20
-35.000017285967282
10
121.00000180304053
20
-30.000000447034829
10
113.00000168383124
20
-30.000000447034829
10
113.00000168383124
20
-25.000000372529023
10
120.99998448510013
20
-25.000028081020147
10
121.00000180304053
20
-20.000000298023217
10
113.00000168383136
20
-20.000000298023217
10
113.00000168383136
20
-15.00000022351742
10
121.0000477058835
20
-14.999926777468298
10
121.00000180304053
20
-10.000000149011603
10
113.00000168383124
20
-10.000000149011603
10
113.00000168383124
20
-5.0000000745057971
10
121.00006005459393
20
-4.9999068696037492
10
121.00000180304053
20
8.3266726846886741e-15
10
113.00000168383124
20
8.8789814567822453e-15
10
113.00000168383124
20
5.0000000745058149
10
121.00011216185007
20
5.0001766572746744
10
121.00000180304053
20
10.000000149011621
10
113.00000168383134
20
10.000000149011621
10
113.00000168383134
20
15.000000223517436
10
121.000004745111
20
15.000004930836344
10
121.00000180304053
20
20.000000298023231
10
113.00000168383124
20
20.000000298023231
10
113.00000168383124
20
25.000000372529037
10
121.00007900652673
20
25.000123902351426
10
121.00000180304053
20
30.000000447034843
10
113.00000168383129
20
30.000000447034843
10
113.00000168383129
20
35.000125753371222
10
13.999999985098874
20
35.000000000000007
10
13.999999985098874
20
45.000000000000007
10
-16.000000238418544
20
45.000000000000007
10
-16.000000238418544
20
35.000000521540649
10
-115.00001072089334
20
34.99982217140186
10
-115.00000171363351
20
30.000000447034843
10
-123.0000018328428
20
30.000000447034843
10
-123.0000018328428
20
25.000000372529037
10
-115.00000171363351
20
25.000000372529037
10
-115.00000171363351
20
20.000000298023231
10
-123.0000018328428
20
20.000000298023231
10
-123.0000018328428
20
15.000000223517427
10
-115.00000171363351
20
15.000000223517427
10
-115.00000171363351
20
10.000000149011621
10
-123.0000018328428
20
10.000000149011621
10
-123.0000018328428
20
5.0000000745058149
10
-115.00000171363351
20
5.0000000745058149
10
-115.00000171363351
20
8.8817841970012523e-15
10
-123.0000018328428
20
8.4942401768036765e-15
10
-123.0000018328428
20
-5.0000000745057971
10
-115.00000171363351
20
-5.0000000745057971
10
-115.00000171363351
20
-10.000000149011603
10
-123.0000018328428
20
-10.000000149011603
10
-123.0000018328428
20
-15.000000223517409
10
-115.00000171363351
20
-15.000000223517409
10
-115.00000171363351
20
-20.000000298023217
10
-123.0000018328428
20
-20.000000298023217
10
-123.0000018328428
20
-25.000000372529023
10
-115.00000171363351
20
-25.000000372529023
10
-115.00000171363351
20
-30.000000447034829
10
-123.0000018328428
20
-30.000000447034829
10
-123.0000018328428
20
-35.000000521540635
10
-115.00000171363354
20
-34.999999826153108
10
72.750000000000128
20
-35.000013970870569
0
CIRCLE
5
106
100
AcDbEntity
8
0
100
AcDbCircle
10
25.000000372529065
20
-23.0000003427267
30
0
40
1.4999999999999991
210
7.2699200114507798e-49
220
-9.5209225174800869e-81
230
1
0
CIRCLE
5
107
100
AcDbEntity
8
0
100
AcDbCircle
10
40.000000596046483
20
-23.0000003427267
30
1.7763568394002505e-14
40
1.4999999999999947
210
7.2699200114507798e-49
220
-9.5209225174800869e-81
230
1
0
ENDSEC
0
SECTION
2
OBJECTS
0
DICTIONARY
5
C
100
AcDbDictionary
3
ACAD_GROUP
350
D
3
ACAD_MLINESTYLE
350
17
0
DICTIONARY
5
D
100
AcDbDictionary
0
DICTIONARY
5
1A
330
C
100
AcDbDictionary
0
DICTIONARY
5
17
100
AcDbDictionary
0
ENDSEC
0
EOF
